<?xml version="1.0" encoding="utf-8"?>
<!-- Generator: Adobe Illustrator 15.1.0, SVG Export Plug-In . SVG Version: 6.00 Build 0)  -->
<!DOCTYPE svg PUBLIC "-//W3C//DTD SVG 1.1//EN" "http://www.w3.org/Graphics/SVG/1.1/DTD/svg11.dtd">
<svg version="1.1" id="Layer_1" xmlns="http://www.w3.org/2000/svg" xmlns:xlink="http://www.w3.org/1999/xlink" x="0px" y="0px"
	 width="1400px" height="980px" viewBox="0 0 1400 980" enable-background="new 0 0 1400 980" xml:space="preserve">
<g>
	<g>
		<g>
			<g>
				<path d="M434.589,602.646H229.763V397.819h204.827V602.646z M235.349,597.06h193.655V403.406H235.349V597.06z"/>
				<path d="M419.384,551.313H244.97V415.177h174.414V551.313z M248.694,547.589h166.965V418.902H248.694V547.589z"/>
				<polygon points="248.17,550.745 245.494,548.156 313.846,477.544 332.496,506.448 382.329,457.08 419.1,515.848 
					415.943,517.822 381.642,463.003 331.856,512.325 313.261,483.505 				"/>
				<path d="M335.898,475.404c-10.268,0-18.621-8.353-18.621-18.621s8.353-18.621,18.621-18.621s18.621,8.353,18.621,18.621
					S346.167,475.404,335.898,475.404z M335.898,441.886c-8.214,0-14.897,6.683-14.897,14.897s6.683,14.897,14.897,14.897
					s14.897-6.683,14.897-14.897S344.112,441.886,335.898,441.886z"/>
			</g>
			<g>
				<polygon points="149.505,591.896 114.632,390.06 316.468,355.187 324.234,400.137 318.729,401.088 311.915,361.642 
					121.087,394.613 154.059,585.441 232.08,571.959 233.031,577.464 				"/>
				<polygon points="155.75,538.724 132.572,404.576 304.438,374.88 308.829,400.294 305.159,400.929 301.403,379.185 
					136.876,407.611 158.786,534.419 232.238,521.729 232.873,525.398 				"/>
				<polygon points="158.807,537.62 155.729,535.523 211.062,454.305 235.916,481.301 233.175,483.823 211.498,460.279 				"/>
				<path d="M229.248,448.715c-8.889,0-16.776-6.403-18.34-15.453c-1.749-10.118,5.061-19.772,15.178-21.52
					c2.285-0.395,4.585-0.364,6.836,0.088l-0.732,3.651c-1.802-0.362-3.64-0.384-5.47-0.07c-8.094,1.398-13.541,9.121-12.143,17.215
					c0.677,3.921,2.841,7.344,6.093,9.637c3.252,2.294,7.207,3.183,11.123,2.507l0.635,3.669
					C231.359,448.626,230.296,448.715,229.248,448.715z"/>
			</g>
		</g>
		<g>
			<g>
				<polygon points="1173.511,523.237 1138.28,523.237 1138.28,451.786 1143.866,451.786 1143.866,517.651 1167.924,517.651 
					1167.924,451.785 1173.511,451.785 				"/>
				<path d="M1168.95,652.537h-26.109V517.651h26.109V652.537z M1148.427,646.951h14.937V523.237h-14.937V646.951z"/>
			</g>
			<g>
				<g>
					<polygon points="1108.791,529.771 1076.25,517.095 1121.436,417.407 1126.523,419.713 1083.772,514.031 1105.887,522.645 
						1153.592,417.407 1158.68,419.713 					"/>
					<path d="M1050.555,647.336l-24.133-9.401l56.342-124.297l24.133,9.398L1050.555,647.336z M1033.945,634.871l13.706,5.339
						l51.722-114.108l-13.705-5.337L1033.945,634.871z"/>
				</g>
				<g>
					<polygon points="1203,529.771 1153.111,419.709 1158.199,417.403 1205.903,522.645 1228.018,514.031 1185.267,419.713 
						1190.355,417.408 1235.541,517.095 					"/>
					<path d="M1261.235,647.336l-56.341-124.3l24.133-9.398l56.341,124.297L1261.235,647.336z M1212.417,526.102l51.723,114.108
						l13.706-5.339l-51.723-114.106L1212.417,526.102z"/>
				</g>
			</g>
			<path d="M1201.506,421.353h-91.221v-51.942h91.221V421.353z M1115.871,415.767h80.049v-40.77h-80.049V415.767z"/>
			<rect x="1198.713" y="389.674" width="13.72" height="5.586"/>
			<rect x="1209.64" y="382.474" width="5.586" height="21.651"/>
			<rect x="1145.634" y="633.14" width="20.523" height="3.724"/>
			
				<rect x="1263.226" y="614.009" transform="matrix(0.3627 0.9319 -0.9319 0.3627 1387.8438 -781.17)" width="3.723" height="20.304"/>
			
				<rect x="1036.863" y="623.869" transform="matrix(0.9318 0.363 -0.363 0.9318 298.5157 -337.3524)" width="20.306" height="3.724"/>
			<rect x="1113.078" y="404.484" width="19.108" height="3.724"/>
			<rect x="1113.078" y="393.519" width="19.108" height="3.725"/>
			<rect x="1113.078" y="382.554" width="19.108" height="3.725"/>
		</g>
		<g>
			<path d="M970.521,479.048H831.955v-83.13h138.565V479.048z M835.68,475.324h131.116v-75.682H835.68V475.324z"/>
			<path d="M968.658,492.715H833.817c-8.563,0-15.528-6.967-15.528-15.529v-79.406c0-8.562,6.966-15.528,15.528-15.528h134.841
				c8.563,0,15.527,6.966,15.527,15.528v79.406C984.186,485.748,977.221,492.715,968.658,492.715z M833.817,387.837
				c-5.482,0-9.942,4.46-9.942,9.942v79.406c0,5.483,4.46,9.942,9.942,9.942h134.841c5.481,0,9.941-4.459,9.941-9.942v-79.406
				c0-5.482-4.46-9.942-9.941-9.942H833.817z"/>
			<path d="M941.678,604.87h-80.881c-8.563,0-15.529-6.967-15.529-15.528v-99.42h5.586v99.42c0,5.481,4.461,9.941,9.943,9.941
				h80.881c5.481,0,9.941-4.46,9.941-9.941v-99.42h5.587v99.42C957.206,597.903,950.24,604.87,941.678,604.87z"/>
			<rect x="833.817" y="409.921" width="120.244" height="3.724"/>
			<rect x="833.817" y="424.198" width="120.244" height="3.724"/>
			<rect x="833.817" y="438.474" width="120.244" height="3.724"/>
			<rect x="833.817" y="452.75" width="120.244" height="3.724"/>
			<polygon points="921.66,558.634 917.937,558.634 917.937,520.521 879.236,520.521 879.236,558.634 875.512,558.634 
				875.512,516.797 921.66,516.797 			"/>
			<rect x="877.374" y="543.923" width="42.424" height="3.724"/>
			<path d="M922.592,627.24H874.58v-26.466h48.012V627.24z M880.167,621.654h36.838v-15.293h-36.838V621.654z"/>
		</g>
		<g>
			<path d="M620.221,610.583c-68.633,0-124.469-55.835-124.469-124.469c0-68.633,55.836-124.469,124.469-124.469
				c68.633,0,124.47,55.836,124.47,124.469C744.69,554.748,688.854,610.583,620.221,610.583z M620.221,367.231
				c-65.552,0-118.883,53.331-118.883,118.883c0,65.553,53.331,118.883,118.883,118.883c65.553,0,118.883-53.33,118.883-118.883
				C739.104,420.562,685.773,367.231,620.221,367.231z"/>
			<path d="M649.625,537.043h-58.807l-29.403-50.927l29.403-50.928h58.807l29.402,50.928L649.625,537.043z M594.044,531.457h52.355
				l26.177-45.341l-26.177-45.341h-52.355l-26.179,45.341L594.044,531.457z"/>
			<rect x="648.012" y="435.188" width="83.985" height="5.586"/>
			
				<rect x="610.795" y="359.594" transform="matrix(0.8642 0.5032 -0.5032 0.8642 285.4153 -254.1851)" width="5.587" height="84.099"/>
			
				<rect x="501.698" y="446.83" transform="matrix(0.4968 0.8679 -0.8679 0.4968 663.8124 -245.6525)" width="84.101" height="5.586"/>
			<rect x="508.309" y="531.303" transform="matrix(1 0.0037 -0.0037 1 1.963 -2.0154)" width="84.122" height="5.586"/>
			
				<rect x="624.061" y="528.539" transform="matrix(0.8642 0.5031 -0.5031 0.8642 372.1607 -237.8974)" width="5.587" height="84.097"/>
			
				<rect x="654.643" y="519.816" transform="matrix(0.4968 0.8679 -0.8679 0.4968 804.1125 -341.6606)" width="84.1" height="5.586"/>
		</g>
		<g>
			<path d="M1006.458,294.114H793.405c-8.681,0-15.743-7.062-15.743-15.743V148.797c0-8.681,7.063-15.743,15.743-15.743h213.053
				c8.681,0,15.743,7.062,15.743,15.743v129.574C1022.201,287.052,1015.139,294.114,1006.458,294.114z M793.405,138.64
				c-5.601,0-10.156,4.556-10.156,10.157v129.574c0,5.601,4.556,10.157,10.156,10.157h213.053c5.601,0,10.156-4.556,10.156-10.157
				V148.797c0-5.601-4.556-10.157-10.156-10.157H793.405z"/>
			<path d="M948.442,138.64h-97.021l30.667-31.486h35.688L948.442,138.64z M864.659,133.054h70.545L915.42,112.74h-30.976
				L864.659,133.054z"/>
			<path d="M828.746,138.64h-23.543v-17.179h23.543V138.64z M810.789,133.054h12.371v-6.006h-12.371V133.054z"/>
			<path d="M910.771,137.709h-21.681v-15.317h21.681V137.709z M892.815,133.984h14.231v-7.868h-14.231V133.984z"/>
			<path d="M999.381,138.64h-41.197v-28.574h41.197V138.64z M963.771,133.054h30.024v-17.402h-30.024V133.054z"/>
			<rect x="960.978" y="121.035" width="35.61" height="3.724"/>
			<path d="M899.932,268.521c-30.293,0-54.938-24.646-54.938-54.938c0-30.293,24.646-54.938,54.938-54.938
				c30.294,0,54.939,24.646,54.939,54.938C954.871,243.875,930.226,268.521,899.932,268.521z M899.932,164.231
				c-27.213,0-49.352,22.139-49.352,49.352c0,27.213,22.139,49.352,49.352,49.352s49.353-22.139,49.353-49.352
				C949.284,186.37,927.145,164.231,899.932,164.231z"/>
			<path d="M899.932,250.325c-20.26,0-36.742-16.482-36.742-36.742c0-20.26,16.482-36.741,36.742-36.741
				s36.742,16.481,36.742,36.741C936.674,233.842,920.191,250.325,899.932,250.325z M899.932,180.566
				c-18.206,0-33.018,14.812-33.018,33.017c0,18.206,14.812,33.018,33.018,33.018s33.018-14.812,33.018-33.018
				C932.949,195.377,918.138,180.566,899.932,180.566z"/>
			<rect x="780.456" y="155.546" width="241.299" height="3.724"/>
			<rect x="819.946" y="166.041" width="3.724" height="125.28"/>
			<rect x="993.302" y="244.354" width="3.725" height="17.688"/>
			<rect x="993.302" y="184.543" width="3.725" height="48.492"/>
		</g>
		<g>
			<path d="M450.33,146.451H327.055v-17.544H450.33V146.451z M332.642,140.865h112.102v-6.372H332.642V140.865z"/>
			<path d="M408.164,134.493h-38.941v-25.515h38.941V134.493z M374.809,128.907h27.769v-14.342h-27.769V128.907z"/>
			<path d="M450.33,318.189H327.055v-17.544H450.33V318.189z M332.642,312.603h112.102v-6.372H332.642V312.603z"/>
			<path d="M442.149,306.231H335.237V140.865h106.912V306.231z M340.824,300.645h95.739V146.451h-95.739V300.645z"/>
			<path d="M506.103,289.029h-69.541V158.067h103.135v36.102l-0.275,0.574c-2.81,5.846-7.519,10.981-12.074,15.948
				c-3.209,3.5-6.24,6.806-8.213,9.969c-7.849,12.586-12.962,38.33-13.026,65.583L506.103,289.029z M442.149,283.442h58.397
				c0.406-27.193,5.765-52.773,13.849-65.739c2.247-3.603,5.447-7.093,8.836-10.788c4.124-4.497,8.383-9.142,10.881-14.037v-29.226
				h-91.963V283.442z"/>
			<path d="M464.189,184.54h-20.087v-13.794h20.087V184.54z M447.826,180.815h12.639v-6.346h-12.639V180.815z"/>
			<path d="M490.517,184.54h-20.088v-13.794h20.088V184.54z M474.154,180.815h12.639v-6.346h-12.639V180.815z"/>
			<path d="M464.189,276.845h-20.087v-13.794h20.087V276.845z M447.826,273.121h12.639v-6.345h-12.639V273.121z"/>
			<path d="M490.517,276.845h-20.088v-13.794h20.088V276.845z M474.154,273.121h12.639v-6.345h-12.639V273.121z"/>
			<path d="M516.845,184.54h-20.088v-13.794h20.088V184.54z M500.481,180.815h12.639v-6.346h-12.639V180.815z"/>
			<rect x="424.906" y="160.86" width="3.724" height="125.375"/>
		</g>
		<g>
			<rect x="579.913" y="146.588" width="106.124" height="3.724"/>
			<rect x="596.197" y="122.896" width="3.724" height="17.958"/>
			<rect x="609.301" y="122.896" width="3.725" height="17.958"/>
			<rect x="622.406" y="122.896" width="3.724" height="17.958"/>
			<rect x="635.51" y="122.896" width="3.724" height="17.958"/>
			<rect x="648.614" y="122.896" width="3.724" height="17.958"/>
			<path d="M710.993,292.83H576.595V120.104h85.044l49.354,49.354v21.863l-7.357,7.357l7.357,7.358V292.83z M582.182,287.244
				h123.226v-78.895l-9.67-9.671l9.67-9.67V171.77l-46.081-46.08h-77.145V287.244z"/>
			<path d="M689.646,274.114h-91.703V221.18h91.703V274.114z M601.667,270.39h84.254v-45.485h-84.254V270.39z"/>
			<rect x="604.86" y="230.504" width="65.786" height="3.724"/>
			<rect x="604.86" y="245.785" width="65.786" height="3.724"/>
		</g>
		<g>
			<path d="M377.049,785.928h-44.317c-5.78,0-10.482-4.701-10.482-10.481v-48.818h65.282v48.818
				C387.532,781.227,382.829,785.928,377.049,785.928z M327.836,732.214v43.232c0,2.7,2.197,4.896,4.896,4.896h44.317
				c2.699,0,4.896-2.195,4.896-4.896v-43.232H327.836z"/>
			<path d="M376.753,732.214h-43.724v-41.166h43.724V732.214z M338.615,726.628h32.551v-29.993h-32.551V726.628z"/>
			<path d="M371.32,799.974h-32.859v-19.632h32.859V799.974z M344.048,794.387h21.686v-8.459h-21.686V794.387z"/>
			<path d="M490.362,828.354h-39.608v-33.129c0-4.335,3.527-7.861,7.861-7.861h23.887c4.334,0,7.86,3.526,7.86,7.861V828.354z
				 M456.34,822.768h28.436v-27.542c0-1.255-1.02-2.275-2.274-2.275h-23.887c-1.254,0-2.275,1.021-2.275,2.275V822.768z"/>
			<path d="M483.259,851.805h-25.402v-29.037h25.402V851.805z M463.443,846.219h14.229v-17.864h-14.229V846.219z"/>
			<path d="M383.808,851.805c-8.233,0-15.932-2.664-21.679-7.501c-6.562-5.522-10.031-13.362-10.031-22.671v-24.452h5.586v24.452
				c0,16.892,13.542,24.586,26.124,24.586c12.581,0,26.123-7.694,26.123-24.586V716.944c0-17.793,16.075-25.896,31.011-25.896
				c16.105,0,32.409,9.475,32.409,27.581v71.528h-5.586v-71.528c0-15.111-13.905-21.994-26.823-21.994
				c-12.246,0-25.425,6.355-25.425,20.31v104.688C415.518,841.441,399.565,851.805,383.808,851.805z"/>
			<g>
				<rect x="345.353" y="693.842" width="3.724" height="16.66"/>
				<rect x="360.704" y="693.842" width="3.724" height="16.66"/>
			</g>
			<rect x="468.695" y="835.185" width="3.725" height="13.827"/>
		</g>
		<g>
			<g>
				<path d="M909.724,743.171h-48.579v-27.592h48.579V743.171z M864.868,739.446H906v-20.143h-41.132V739.446z"/>
				<path d="M949.335,866.018h-50.441v-37.823h50.441V866.018z M904.479,860.432h39.27V833.78h-39.27V860.432z"/>
				<path d="M987.33,833.78l-126.433-0.002c-11.317,0-20.525-9.208-20.525-20.524V711.035c0-11.318,9.208-20.525,20.525-20.525
					l126.433,0.002c11.318,0,20.526,9.209,20.526,20.526v102.216C1007.856,824.571,998.648,833.78,987.33,833.78z M860.897,696.096
					c-8.237,0-14.939,6.701-14.939,14.939v102.219c0,8.237,6.702,14.938,14.939,14.938l126.433,0.002
					c8.238,0,14.94-6.701,14.94-14.94V711.038c0-8.239-6.702-14.94-14.94-14.94L860.897,696.096z"/>
				<path d="M993.898,773.377h-54.952c-7.696,0-13.958-6.261-13.958-13.959v-54.949c0-7.698,6.262-13.959,13.958-13.959h54.952
					c7.696,0,13.958,6.261,13.958,13.959v54.949C1007.856,767.116,1001.595,773.377,993.898,773.377z M938.946,696.096
					c-4.616,0-8.372,3.756-8.372,8.373v54.949c0,4.617,3.756,8.373,8.372,8.373h54.952c4.616,0,8.372-3.756,8.372-8.373v-54.949
					c0-4.617-3.756-8.373-8.372-8.373H938.946z"/>
				<path d="M966.424,759.913c-15.424,0-27.972-12.548-27.972-27.97c0-15.424,12.548-27.972,27.972-27.972
					c15.422,0,27.969,12.548,27.969,27.972C994.393,747.365,981.846,759.913,966.424,759.913z M966.424,709.559
					c-12.344,0-22.386,10.041-22.386,22.385c0,12.342,10.042,22.383,22.386,22.383c12.342,0,22.383-10.041,22.383-22.383
					C988.807,719.6,978.766,709.559,966.424,709.559z"/>
				<path d="M966.424,748.306c-9.023,0-16.364-7.341-16.364-16.362c0-9.023,7.341-16.364,16.364-16.364
					c9.021,0,16.362,7.341,16.362,16.364C982.786,740.965,975.445,748.306,966.424,748.306z M966.424,719.304
					c-6.971,0-12.641,5.67-12.641,12.64c0,6.969,5.67,12.639,12.641,12.639c6.968,0,12.638-5.67,12.638-12.639
					C979.062,724.974,973.392,719.304,966.424,719.304z"/>
				<path d="M890.592,803.749c-6.021,0-10.922-4.899-10.922-10.92c0-6.021,4.9-10.92,10.922-10.92s10.92,4.898,10.92,10.92
					C901.512,798.85,896.613,803.749,890.592,803.749z M890.592,785.633c-3.969,0-7.197,3.229-7.197,7.196s3.229,7.195,7.197,7.195
					c3.968,0,7.196-3.228,7.196-7.195S894.56,785.633,890.592,785.633z"/>
				<rect x="883.62" y="860.432" width="80.988" height="5.586"/>
				<rect x="932.063" y="840.302" width="3.725" height="22.923"/>
				<rect x="846.211" y="840.64" width="55.476" height="3.724"/>
			</g>
			<path d="M920.837,696.096h-34.915v-18.917h34.915V696.096z M891.509,690.51h23.741v-7.745h-23.741V690.51z"/>
		</g>
		<g>
			<path d="M735.715,765.767c-40.372,0-73.217-32.845-73.217-73.217c0-40.371,32.845-73.216,73.217-73.216v5.586
				c-37.292,0-67.63,30.339-67.63,67.63s30.339,67.631,67.63,67.631V765.767z"/>
			<path d="M668.697,723.124h-12.299c-16.859,0-30.575-13.715-30.575-30.574c0-16.858,13.716-30.573,30.575-30.573h12.299v5.586
				h-12.299c-13.778,0-24.988,11.209-24.988,24.987s11.21,24.987,24.988,24.987h12.299V723.124z"/>
			<path d="M735.715,716.052v-5.586c9.878,0,17.915-8.038,17.915-17.916s-8.037-17.915-17.915-17.915v-5.586
				c12.959,0,23.501,10.543,23.501,23.501C759.216,705.509,748.674,716.052,735.715,716.052z"/>
			<rect x="732.922" y="609.769" width="5.587" height="165.563"/>
			<rect x="651.042" y="720.209" width="5.586" height="152.637"/>
			<rect x="720.378" y="671.842" width="3.724" height="89.839"/>
			<rect x="639.933" y="791.711" width="28.765" height="3.724"/>
			<path d="M618.541,866.692l-3.302-1.722c19.281-36.982,7.655-71.02-1.688-98.369c-1.589-4.653-3.09-9.051-4.333-13.183
				c-6.569-21.843-6.204-38.707,1.085-50.124c6.949-10.885,17.6-12.523,18.05-12.589l0.534,3.687
				c-0.095,0.015-9.495,1.52-15.491,10.978c-6.633,10.464-6.84,26.27-0.613,46.977c1.223,4.065,2.714,8.43,4.292,13.051
				C626.143,791.941,638.56,828.296,618.541,866.692z"/>
		</g>
	</g>
	<g>
		<g>
			<g>
				<path d="M434.589,602.646H229.763V397.819h204.827V602.646z M235.349,597.06h193.655V403.406H235.349V597.06z"/>
				<path d="M419.384,551.313H244.97V415.177h174.414V551.313z M248.694,547.589h166.965V418.902H248.694V547.589z"/>
				<polygon points="248.17,550.745 245.494,548.156 313.846,477.544 332.496,506.448 382.329,457.08 419.1,515.848 
					415.943,517.822 381.642,463.003 331.856,512.325 313.261,483.505 				"/>
				<path d="M335.898,475.404c-10.268,0-18.621-8.353-18.621-18.621s8.353-18.621,18.621-18.621s18.621,8.353,18.621,18.621
					S346.167,475.404,335.898,475.404z M335.898,441.886c-8.214,0-14.897,6.683-14.897,14.897s6.683,14.897,14.897,14.897
					s14.897-6.683,14.897-14.897S344.112,441.886,335.898,441.886z"/>
			</g>
			<g>
				<polygon points="149.505,591.896 114.632,390.06 316.468,355.187 324.234,400.137 318.729,401.088 311.915,361.642 
					121.087,394.613 154.059,585.441 232.08,571.959 233.031,577.464 				"/>
				<polygon points="155.75,538.724 132.572,404.576 304.438,374.88 308.829,400.294 305.159,400.929 301.403,379.185 
					136.876,407.611 158.786,534.419 232.238,521.729 232.873,525.398 				"/>
				<polygon points="158.807,537.62 155.729,535.523 211.062,454.305 235.916,481.301 233.175,483.823 211.498,460.279 				"/>
				<path d="M229.248,448.715c-8.889,0-16.776-6.403-18.34-15.453c-1.749-10.118,5.061-19.772,15.178-21.52
					c2.285-0.395,4.585-0.364,6.836,0.088l-0.732,3.651c-1.802-0.362-3.64-0.384-5.47-0.07c-8.094,1.398-13.541,9.121-12.143,17.215
					c0.677,3.921,2.841,7.344,6.093,9.637c3.252,2.294,7.207,3.183,11.123,2.507l0.635,3.669
					C231.359,448.626,230.296,448.715,229.248,448.715z"/>
			</g>
		</g>
		<g>
			<g>
				<polygon points="1173.511,523.237 1138.28,523.237 1138.28,451.786 1143.866,451.786 1143.866,517.651 1167.924,517.651 
					1167.924,451.785 1173.511,451.785 				"/>
				<path d="M1168.95,652.537h-26.109V517.651h26.109V652.537z M1148.427,646.951h14.937V523.237h-14.937V646.951z"/>
			</g>
			<g>
				<g>
					<polygon points="1108.791,529.771 1076.25,517.095 1121.436,417.407 1126.523,419.713 1083.772,514.031 1105.887,522.645 
						1153.592,417.407 1158.68,419.713 					"/>
					<path d="M1050.555,647.336l-24.133-9.401l56.342-124.297l24.133,9.398L1050.555,647.336z M1033.945,634.871l13.706,5.339
						l51.722-114.108l-13.705-5.337L1033.945,634.871z"/>
				</g>
				<g>
					<polygon points="1203,529.771 1153.111,419.709 1158.199,417.403 1205.903,522.645 1228.018,514.031 1185.267,419.713 
						1190.355,417.408 1235.541,517.095 					"/>
					<path d="M1261.235,647.336l-56.341-124.3l24.133-9.398l56.341,124.297L1261.235,647.336z M1212.417,526.102l51.723,114.108
						l13.706-5.339l-51.723-114.106L1212.417,526.102z"/>
				</g>
			</g>
			<path d="M1201.506,421.353h-91.221v-51.942h91.221V421.353z M1115.871,415.767h80.049v-40.77h-80.049V415.767z"/>
			<rect x="1198.713" y="389.674" width="13.72" height="5.586"/>
			<rect x="1209.64" y="382.474" width="5.586" height="21.651"/>
			<rect x="1145.634" y="633.14" width="20.523" height="3.724"/>
			
				<rect x="1263.226" y="614.009" transform="matrix(0.3627 0.9319 -0.9319 0.3627 1387.8438 -781.17)" width="3.723" height="20.304"/>
			
				<rect x="1036.863" y="623.869" transform="matrix(0.9318 0.363 -0.363 0.9318 298.5157 -337.3524)" width="20.306" height="3.724"/>
			<rect x="1113.078" y="404.484" width="19.108" height="3.724"/>
			<rect x="1113.078" y="393.519" width="19.108" height="3.725"/>
			<rect x="1113.078" y="382.554" width="19.108" height="3.725"/>
		</g>
		<g>
			<path d="M970.521,479.048H831.955v-83.13h138.565V479.048z M835.68,475.324h131.116v-75.682H835.68V475.324z"/>
			<path d="M968.658,492.715H833.817c-8.563,0-15.528-6.967-15.528-15.529v-79.406c0-8.562,6.966-15.528,15.528-15.528h134.841
				c8.563,0,15.527,6.966,15.527,15.528v79.406C984.186,485.748,977.221,492.715,968.658,492.715z M833.817,387.837
				c-5.482,0-9.942,4.46-9.942,9.942v79.406c0,5.483,4.46,9.942,9.942,9.942h134.841c5.481,0,9.941-4.459,9.941-9.942v-79.406
				c0-5.482-4.46-9.942-9.941-9.942H833.817z"/>
			<path d="M941.678,604.87h-80.881c-8.563,0-15.529-6.967-15.529-15.528v-99.42h5.586v99.42c0,5.481,4.461,9.941,9.943,9.941
				h80.881c5.481,0,9.941-4.46,9.941-9.941v-99.42h5.587v99.42C957.206,597.903,950.24,604.87,941.678,604.87z"/>
			<rect x="833.817" y="409.921" width="120.244" height="3.724"/>
			<rect x="833.817" y="424.198" width="120.244" height="3.724"/>
			<rect x="833.817" y="438.474" width="120.244" height="3.724"/>
			<rect x="833.817" y="452.75" width="120.244" height="3.724"/>
			<polygon points="921.66,558.634 917.937,558.634 917.937,520.521 879.236,520.521 879.236,558.634 875.512,558.634 
				875.512,516.797 921.66,516.797 			"/>
			<rect x="877.374" y="543.923" width="42.424" height="3.724"/>
			<path d="M922.592,627.24H874.58v-26.466h48.012V627.24z M880.167,621.654h36.838v-15.293h-36.838V621.654z"/>
		</g>
		<g>
			<path d="M620.221,610.583c-68.633,0-124.469-55.835-124.469-124.469c0-68.633,55.836-124.469,124.469-124.469
				c68.633,0,124.47,55.836,124.47,124.469C744.69,554.748,688.854,610.583,620.221,610.583z M620.221,367.231
				c-65.552,0-118.883,53.331-118.883,118.883c0,65.553,53.331,118.883,118.883,118.883c65.553,0,118.883-53.33,118.883-118.883
				C739.104,420.562,685.773,367.231,620.221,367.231z"/>
			<path d="M649.625,537.043h-58.807l-29.403-50.927l29.403-50.928h58.807l29.402,50.928L649.625,537.043z M594.044,531.457h52.355
				l26.177-45.341l-26.177-45.341h-52.355l-26.179,45.341L594.044,531.457z"/>
			<rect x="648.012" y="435.188" width="83.985" height="5.586"/>
			
				<rect x="610.795" y="359.594" transform="matrix(0.8642 0.5032 -0.5032 0.8642 285.4153 -254.1851)" width="5.587" height="84.099"/>
			
				<rect x="501.698" y="446.83" transform="matrix(0.4968 0.8679 -0.8679 0.4968 663.8124 -245.6525)" width="84.101" height="5.586"/>
			<rect x="508.309" y="531.303" transform="matrix(1 0.0037 -0.0037 1 1.963 -2.0154)" width="84.122" height="5.586"/>
			
				<rect x="624.061" y="528.539" transform="matrix(0.8642 0.5031 -0.5031 0.8642 372.1607 -237.8974)" width="5.587" height="84.097"/>
			
				<rect x="654.643" y="519.816" transform="matrix(0.4968 0.8679 -0.8679 0.4968 804.1125 -341.6606)" width="84.1" height="5.586"/>
		</g>
		<g>
			<path d="M1006.458,294.114H793.405c-8.681,0-15.743-7.062-15.743-15.743V148.797c0-8.681,7.063-15.743,15.743-15.743h213.053
				c8.681,0,15.743,7.062,15.743,15.743v129.574C1022.201,287.052,1015.139,294.114,1006.458,294.114z M793.405,138.64
				c-5.601,0-10.156,4.556-10.156,10.157v129.574c0,5.601,4.556,10.157,10.156,10.157h213.053c5.601,0,10.156-4.556,10.156-10.157
				V148.797c0-5.601-4.556-10.157-10.156-10.157H793.405z"/>
			<path d="M948.442,138.64h-97.021l30.667-31.486h35.688L948.442,138.64z M864.659,133.054h70.545L915.42,112.74h-30.976
				L864.659,133.054z"/>
			<path d="M828.746,138.64h-23.543v-17.179h23.543V138.64z M810.789,133.054h12.371v-6.006h-12.371V133.054z"/>
			<path d="M910.771,137.709h-21.681v-15.317h21.681V137.709z M892.815,133.984h14.231v-7.868h-14.231V133.984z"/>
			<path d="M999.381,138.64h-41.197v-28.574h41.197V138.64z M963.771,133.054h30.024v-17.402h-30.024V133.054z"/>
			<rect x="960.978" y="121.035" width="35.61" height="3.724"/>
			<path d="M899.932,268.521c-30.293,0-54.938-24.646-54.938-54.938c0-30.293,24.646-54.938,54.938-54.938
				c30.294,0,54.939,24.646,54.939,54.938C954.871,243.875,930.226,268.521,899.932,268.521z M899.932,164.231
				c-27.213,0-49.352,22.139-49.352,49.352c0,27.213,22.139,49.352,49.352,49.352s49.353-22.139,49.353-49.352
				C949.284,186.37,927.145,164.231,899.932,164.231z"/>
			<path d="M899.932,250.325c-20.26,0-36.742-16.482-36.742-36.742c0-20.26,16.482-36.741,36.742-36.741
				s36.742,16.481,36.742,36.741C936.674,233.842,920.191,250.325,899.932,250.325z M899.932,180.566
				c-18.206,0-33.018,14.812-33.018,33.017c0,18.206,14.812,33.018,33.018,33.018s33.018-14.812,33.018-33.018
				C932.949,195.377,918.138,180.566,899.932,180.566z"/>
			<rect x="780.456" y="155.546" width="241.299" height="3.724"/>
			<rect x="819.946" y="166.041" width="3.724" height="125.28"/>
			<rect x="993.302" y="244.354" width="3.725" height="17.688"/>
			<rect x="993.302" y="184.543" width="3.725" height="48.492"/>
		</g>
		<g>
			<path d="M450.33,146.451H327.055v-17.544H450.33V146.451z M332.642,140.865h112.102v-6.372H332.642V140.865z"/>
			<path d="M408.164,134.493h-38.941v-25.515h38.941V134.493z M374.809,128.907h27.769v-14.342h-27.769V128.907z"/>
			<path d="M450.33,318.189H327.055v-17.544H450.33V318.189z M332.642,312.603h112.102v-6.372H332.642V312.603z"/>
			<path d="M442.149,306.231H335.237V140.865h106.912V306.231z M340.824,300.645h95.739V146.451h-95.739V300.645z"/>
			<path d="M506.103,289.029h-69.541V158.067h103.135v36.102l-0.275,0.574c-2.81,5.846-7.519,10.981-12.074,15.948
				c-3.209,3.5-6.24,6.806-8.213,9.969c-7.849,12.586-12.962,38.33-13.026,65.583L506.103,289.029z M442.149,283.442h58.397
				c0.406-27.193,5.765-52.773,13.849-65.739c2.247-3.603,5.447-7.093,8.836-10.788c4.124-4.497,8.383-9.142,10.881-14.037v-29.226
				h-91.963V283.442z"/>
			<path d="M464.189,184.54h-20.087v-13.794h20.087V184.54z M447.826,180.815h12.639v-6.346h-12.639V180.815z"/>
			<path d="M490.517,184.54h-20.088v-13.794h20.088V184.54z M474.154,180.815h12.639v-6.346h-12.639V180.815z"/>
			<path d="M464.189,276.845h-20.087v-13.794h20.087V276.845z M447.826,273.121h12.639v-6.345h-12.639V273.121z"/>
			<path d="M490.517,276.845h-20.088v-13.794h20.088V276.845z M474.154,273.121h12.639v-6.345h-12.639V273.121z"/>
			<path d="M516.845,184.54h-20.088v-13.794h20.088V184.54z M500.481,180.815h12.639v-6.346h-12.639V180.815z"/>
			<rect x="424.906" y="160.86" width="3.724" height="125.375"/>
		</g>
		<g>
			<rect x="579.913" y="146.588" width="106.124" height="3.724"/>
			<rect x="596.197" y="122.896" width="3.724" height="17.958"/>
			<rect x="609.301" y="122.896" width="3.725" height="17.958"/>
			<rect x="622.406" y="122.896" width="3.724" height="17.958"/>
			<rect x="635.51" y="122.896" width="3.724" height="17.958"/>
			<rect x="648.614" y="122.896" width="3.724" height="17.958"/>
			<path d="M710.993,292.83H576.595V120.104h85.044l49.354,49.354v21.863l-7.357,7.357l7.357,7.358V292.83z M582.182,287.244
				h123.226v-78.895l-9.67-9.671l9.67-9.67V171.77l-46.081-46.08h-77.145V287.244z"/>
			<path d="M689.646,274.114h-91.703V221.18h91.703V274.114z M601.667,270.39h84.254v-45.485h-84.254V270.39z"/>
			<rect x="604.86" y="230.504" width="65.786" height="3.724"/>
			<rect x="604.86" y="245.785" width="65.786" height="3.724"/>
		</g>
		<g>
			<path d="M377.049,785.928h-44.317c-5.78,0-10.482-4.701-10.482-10.481v-48.818h65.282v48.818
				C387.532,781.227,382.829,785.928,377.049,785.928z M327.836,732.214v43.232c0,2.7,2.197,4.896,4.896,4.896h44.317
				c2.699,0,4.896-2.195,4.896-4.896v-43.232H327.836z"/>
			<path d="M376.753,732.214h-43.724v-41.166h43.724V732.214z M338.615,726.628h32.551v-29.993h-32.551V726.628z"/>
			<path d="M371.32,799.974h-32.859v-19.632h32.859V799.974z M344.048,794.387h21.686v-8.459h-21.686V794.387z"/>
			<path d="M490.362,828.354h-39.608v-33.129c0-4.335,3.527-7.861,7.861-7.861h23.887c4.334,0,7.86,3.526,7.86,7.861V828.354z
				 M456.34,822.768h28.436v-27.542c0-1.255-1.02-2.275-2.274-2.275h-23.887c-1.254,0-2.275,1.021-2.275,2.275V822.768z"/>
			<path d="M483.259,851.805h-25.402v-29.037h25.402V851.805z M463.443,846.219h14.229v-17.864h-14.229V846.219z"/>
			<path d="M383.808,851.805c-8.233,0-15.932-2.664-21.679-7.501c-6.562-5.522-10.031-13.362-10.031-22.671v-24.452h5.586v24.452
				c0,16.892,13.542,24.586,26.124,24.586c12.581,0,26.123-7.694,26.123-24.586V716.944c0-17.793,16.075-25.896,31.011-25.896
				c16.105,0,32.409,9.475,32.409,27.581v71.528h-5.586v-71.528c0-15.111-13.905-21.994-26.823-21.994
				c-12.246,0-25.425,6.355-25.425,20.31v104.688C415.518,841.441,399.565,851.805,383.808,851.805z"/>
			<g>
				<rect x="345.353" y="693.842" width="3.724" height="16.66"/>
				<rect x="360.704" y="693.842" width="3.724" height="16.66"/>
			</g>
			<rect x="468.695" y="835.185" width="3.725" height="13.827"/>
		</g>
		<g>
			<g>
				<path d="M909.724,743.171h-48.579v-27.592h48.579V743.171z M864.868,739.446H906v-20.143h-41.132V739.446z"/>
				<path d="M949.335,866.018h-50.441v-37.823h50.441V866.018z M904.479,860.432h39.27V833.78h-39.27V860.432z"/>
				<path d="M987.33,833.78l-126.433-0.002c-11.317,0-20.525-9.208-20.525-20.524V711.035c0-11.318,9.208-20.525,20.525-20.525
					l126.433,0.002c11.318,0,20.526,9.209,20.526,20.526v102.216C1007.856,824.571,998.648,833.78,987.33,833.78z M860.897,696.096
					c-8.237,0-14.939,6.701-14.939,14.939v102.219c0,8.237,6.702,14.938,14.939,14.938l126.433,0.002
					c8.238,0,14.94-6.701,14.94-14.94V711.038c0-8.239-6.702-14.94-14.94-14.94L860.897,696.096z"/>
				<path d="M993.898,773.377h-54.952c-7.696,0-13.958-6.261-13.958-13.959v-54.949c0-7.698,6.262-13.959,13.958-13.959h54.952
					c7.696,0,13.958,6.261,13.958,13.959v54.949C1007.856,767.116,1001.595,773.377,993.898,773.377z M938.946,696.096
					c-4.616,0-8.372,3.756-8.372,8.373v54.949c0,4.617,3.756,8.373,8.372,8.373h54.952c4.616,0,8.372-3.756,8.372-8.373v-54.949
					c0-4.617-3.756-8.373-8.372-8.373H938.946z"/>
				<path d="M966.424,759.913c-15.424,0-27.972-12.548-27.972-27.97c0-15.424,12.548-27.972,27.972-27.972
					c15.422,0,27.969,12.548,27.969,27.972C994.393,747.365,981.846,759.913,966.424,759.913z M966.424,709.559
					c-12.344,0-22.386,10.041-22.386,22.385c0,12.342,10.042,22.383,22.386,22.383c12.342,0,22.383-10.041,22.383-22.383
					C988.807,719.6,978.766,709.559,966.424,709.559z"/>
				<path d="M966.424,748.306c-9.023,0-16.364-7.341-16.364-16.362c0-9.023,7.341-16.364,16.364-16.364
					c9.021,0,16.362,7.341,16.362,16.364C982.786,740.965,975.445,748.306,966.424,748.306z M966.424,719.304
					c-6.971,0-12.641,5.67-12.641,12.64c0,6.969,5.67,12.639,12.641,12.639c6.968,0,12.638-5.67,12.638-12.639
					C979.062,724.974,973.392,719.304,966.424,719.304z"/>
				<path d="M890.592,803.749c-6.021,0-10.922-4.899-10.922-10.92c0-6.021,4.9-10.92,10.922-10.92s10.92,4.898,10.92,10.92
					C901.512,798.85,896.613,803.749,890.592,803.749z M890.592,785.633c-3.969,0-7.197,3.229-7.197,7.196s3.229,7.195,7.197,7.195
					c3.968,0,7.196-3.228,7.196-7.195S894.56,785.633,890.592,785.633z"/>
				<rect x="883.62" y="860.432" width="80.988" height="5.586"/>
				<rect x="932.063" y="840.302" width="3.725" height="22.923"/>
				<rect x="846.211" y="840.64" width="55.476" height="3.724"/>
			</g>
			<path d="M920.837,696.096h-34.915v-18.917h34.915V696.096z M891.509,690.51h23.741v-7.745h-23.741V690.51z"/>
		</g>
		<g>
			<path d="M735.715,765.767c-40.372,0-73.217-32.845-73.217-73.217c0-40.371,32.845-73.216,73.217-73.216v5.586
				c-37.292,0-67.63,30.339-67.63,67.63s30.339,67.631,67.63,67.631V765.767z"/>
			<path d="M668.697,723.124h-12.299c-16.859,0-30.575-13.715-30.575-30.574c0-16.858,13.716-30.573,30.575-30.573h12.299v5.586
				h-12.299c-13.778,0-24.988,11.209-24.988,24.987s11.21,24.987,24.988,24.987h12.299V723.124z"/>
			<path d="M735.715,716.052v-5.586c9.878,0,17.915-8.038,17.915-17.916s-8.037-17.915-17.915-17.915v-5.586
				c12.959,0,23.501,10.543,23.501,23.501C759.216,705.509,748.674,716.052,735.715,716.052z"/>
			<rect x="732.922" y="609.769" width="5.587" height="165.563"/>
			<rect x="651.042" y="720.209" width="5.586" height="152.637"/>
			<rect x="720.378" y="671.842" width="3.724" height="89.839"/>
			<rect x="639.933" y="791.711" width="28.765" height="3.724"/>
			<path d="M618.541,866.692l-3.302-1.722c19.281-36.982,7.655-71.02-1.688-98.369c-1.589-4.653-3.09-9.051-4.333-13.183
				c-6.569-21.843-6.204-38.707,1.085-50.124c6.949-10.885,17.6-12.523,18.05-12.589l0.534,3.687
				c-0.095,0.015-9.495,1.52-15.491,10.978c-6.633,10.464-6.84,26.27-0.613,46.977c1.223,4.065,2.714,8.43,4.292,13.051
				C626.143,791.941,638.56,828.296,618.541,866.692z"/>
		</g>
	</g>
</g>
</svg>
